<svg width="13" height="16" viewBox="0 0 13 16" fill="none" xmlns="http://www.w3.org/2000/svg">
<path d="M3.22494 12.5155C3.0467 12.5155 2.89353 12.4412 2.76542 12.2926C2.63732 12.1441 2.57326 11.9664 2.57326 11.7597V10.2093H11.0116V3.4845H12.3483C12.5266 3.4845 12.6797 3.55879 12.8078 3.70736C12.9359 3.85594 13 4.03359 13 4.24031V15.5L10.4267 12.5155H3.22494ZM0 11.7403V1.25581C0 1.0491 0.0640531 0.871447 0.192159 0.722868C0.320266 0.574289 0.473436 0.5 0.651671 0.5H9.10668C9.28492 0.5 9.43809 0.574289 9.56619 0.722868C9.6943 0.871447 9.75835 1.0491 9.75835 1.25581V8C9.75835 8.20672 9.6943 8.38437 9.56619 8.53295C9.43809 8.68152 9.28492 8.75581 9.10668 8.75581H2.57326L0 11.7403ZM8.50514 7.30233V1.95349H1.25321V7.30233H8.50514Z" fill="white"/>
</svg>
