<svg width="58" height="58" viewBox="0 0 58 58" fill="none" xmlns="http://www.w3.org/2000/svg">
<path d="M38.6667 7.25H19.3333C12.6706 7.25 7.25 12.6706 7.25 19.3333V38.6667C7.25 45.3294 12.6706 50.75 19.3333 50.75H38.6667C45.3294 50.75 50.75 45.3294 50.75 38.6667V19.3333C50.75 12.6706 45.3294 7.25 38.6667 7.25ZM45.9167 38.6667C45.9167 42.6638 42.6638 45.9167 38.6667 45.9167H19.3333C15.3362 45.9167 12.0833 42.6638 12.0833 38.6667V19.3333C12.0833 15.3362 15.3362 12.0833 19.3333 12.0833H38.6667C42.6638 12.0833 45.9167 15.3362 45.9167 19.3333V38.6667Z" fill="#BACBD9"/>
<path d="M29 16.9166C22.3372 16.9166 16.9167 22.3372 16.9167 29C16.9167 35.6627 22.3372 41.0833 29 41.0833C35.6627 41.0833 41.0833 35.6627 41.0833 29C41.0833 22.3372 35.6627 16.9166 29 16.9166ZM29 36.25C25.0028 36.25 21.75 32.9971 21.75 29C21.75 25.0028 25.0028 21.75 29 21.75C32.9972 21.75 36.25 25.0028 36.25 29C36.25 32.9971 32.9972 36.25 29 36.25Z" fill="#BACBD9"/>
<path d="M41.0833 19.3333C42.418 19.3333 43.5 18.2514 43.5 16.9167C43.5 15.582 42.418 14.5 41.0833 14.5C39.7486 14.5 38.6667 15.582 38.6667 16.9167C38.6667 18.2514 39.7486 19.3333 41.0833 19.3333Z" fill="#BACBD9"/>
</svg>
