<svg width="58" height="58" viewBox="0 0 58 58" fill="none" xmlns="http://www.w3.org/2000/svg">
<path d="M38.6667 7.25H19.3333C12.6706 7.25 7.25 12.6706 7.25 19.3333V38.6667C7.25 45.3294 12.6706 50.75 19.3333 50.75H38.6667C45.3294 50.75 50.75 45.3294 50.75 38.6667V19.3333C50.75 12.6706 45.3294 7.25 38.6667 7.25ZM45.9167 38.6667C45.9167 42.6638 42.6638 45.9167 38.6667 45.9167H19.3333C15.3362 45.9167 12.0833 42.6638 12.0833 38.6667V19.3333C12.0833 15.3362 15.3362 12.0833 19.3333 12.0833H38.6667C42.6638 12.0833 45.9167 15.3362 45.9167 19.3333V38.6667Z" fill="#0F1A33"/>
<path d="M28.9998 16.9166C22.3371 16.9166 16.9165 22.3372 16.9165 29C16.9165 35.6627 22.3371 41.0833 28.9998 41.0833C35.6626 41.0833 41.0832 35.6627 41.0832 29C41.0832 22.3372 35.6626 16.9166 28.9998 16.9166ZM28.9998 36.25C25.0027 36.25 21.7498 32.9971 21.7498 29C21.7498 25.0028 25.0027 21.75 28.9998 21.75C32.997 21.75 36.2498 25.0028 36.2498 29C36.2498 32.9971 32.997 36.25 28.9998 36.25Z" fill="#0F1A33"/>
<path d="M41.0832 19.3333C42.4179 19.3333 43.4998 18.2514 43.4998 16.9167C43.4998 15.582 42.4179 14.5 41.0832 14.5C39.7485 14.5 38.6665 15.582 38.6665 16.9167C38.6665 18.2514 39.7485 19.3333 41.0832 19.3333Z" fill="#0F1A33"/>
</svg>
