<svg width="54" height="54" viewBox="0 0 54 54" fill="none" xmlns="http://www.w3.org/2000/svg">
<path d="M42.7671 11.5116C38.6366 7.3789 33.1438 5.10119 27.2918 5.099C15.2331 5.099 5.41926 14.9085 5.41488 26.9672C5.41269 30.8218 6.42014 34.5844 8.33429 37.9002L5.3667 48.9011L16.8275 46.1919C20.0229 47.9352 23.619 48.8529 27.2809 48.8551H27.2896C39.3462 48.8551 49.16 39.0434 49.1666 26.9869C49.171 21.1415 46.8976 15.6465 42.7671 11.5116ZM27.2831 44.4749C24.3637 44.4727 21.4727 43.7368 18.9256 42.3461L17.4517 41.5423L15.8201 41.9278L11.5099 42.9462L12.5634 39.039L13.0364 37.2826L12.1276 35.7079C10.5989 33.0622 9.7929 30.0399 9.79509 26.9672C9.79947 17.3263 17.6466 9.47921 27.2896 9.47921C31.9677 9.4814 36.3632 11.3036 39.6681 14.6062C42.973 17.9133 44.7908 22.3088 44.7864 26.9825C44.782 36.6277 36.9327 44.4749 27.2831 44.4749Z" fill="#0F1A33"/>
<path d="M37.9951 34.7837C37.5395 36.0605 35.3078 37.2914 34.3047 37.3812C33.3017 37.4732 32.3621 37.8345 27.7454 36.0145C22.1891 33.8244 18.6805 28.128 18.409 27.7644C18.1352 27.3987 16.1772 24.8012 16.1772 22.1118C16.1772 19.4223 17.5899 18.0995 18.0914 17.5542C18.5929 17.0066 19.1843 16.8708 19.55 16.8708C19.9136 16.8708 20.2793 16.8708 20.5969 16.884C20.9867 16.8993 21.4182 16.919 21.8277 17.8279C22.3139 18.9098 23.3761 21.6124 23.5119 21.8862C23.6477 22.16 23.7397 22.4797 23.5579 22.8433C23.3761 23.2068 23.2841 23.4346 23.0126 23.7543C22.7388 24.0741 22.4388 24.4661 22.1935 24.7114C21.9197 24.983 21.635 25.2808 21.9526 25.8262C22.2723 26.3737 23.3674 28.163 24.9924 29.6107C27.0818 31.4723 28.8404 32.0483 29.388 32.3242C29.9355 32.598 30.253 32.552 30.5728 32.1862C30.8926 31.8227 31.9394 30.5919 32.303 30.0443C32.6665 29.4968 33.0323 29.5888 33.5338 29.7706C34.0354 29.9523 36.7226 31.2752 37.2679 31.5489C37.8155 31.8227 38.179 31.9585 38.3148 32.1862C38.4506 32.4118 38.4506 33.5069 37.9951 34.7837Z" fill="#0F1A33"/>
</svg>
