<svg width="54" height="54" viewBox="0 0 54 54" fill="none" xmlns="http://www.w3.org/2000/svg">
<path d="M42.7671 11.5116C38.6365 7.3789 33.1438 5.10119 27.2918 5.099C15.2331 5.099 5.41923 14.9085 5.41485 26.9672C5.41266 30.8218 6.42011 34.5844 8.33426 37.9002L5.36667 48.9011L16.8275 46.1919C20.0228 47.9352 23.619 48.8529 27.2808 48.8551H27.2896C39.3461 48.8551 49.16 39.0434 49.1666 26.9869C49.1709 21.1415 46.8976 15.6465 42.7671 11.5116ZM27.283 44.4749C24.3636 44.4727 21.4727 43.7368 18.9256 42.3461L17.4517 41.5423L15.82 41.9278L11.5099 42.9462L12.5633 39.039L13.0364 37.2826L12.1275 35.7079C10.5988 33.0622 9.79287 30.0399 9.79506 26.9672C9.79944 17.3263 17.6466 9.47921 27.2896 9.47921C31.9677 9.4814 36.3632 11.3036 39.6681 14.6062C42.9729 17.9133 44.7907 22.3088 44.7864 26.9825C44.782 36.6277 36.9326 44.4749 27.283 44.4749Z" fill="#BACBD9"/>
<path d="M37.9948 34.7837C37.5393 36.0605 35.3076 37.2914 34.3045 37.3812C33.3014 37.4732 32.3619 37.8345 27.7451 36.0145C22.1889 33.8244 18.6803 28.128 18.4087 27.7644C18.135 27.3987 16.177 24.8012 16.177 22.1118C16.177 19.4223 17.5896 18.0995 18.0912 17.5542C18.5927 17.0066 19.184 16.8708 19.5498 16.8708C19.9133 16.8708 20.2791 16.8708 20.5966 16.884C20.9865 16.8993 21.4179 16.919 21.8275 17.8279C22.3137 18.9098 23.3759 21.6124 23.5117 21.8862C23.6475 22.16 23.7394 22.4797 23.5577 22.8433C23.3759 23.2068 23.2839 23.4346 23.0123 23.7543C22.7386 24.0741 22.4385 24.4661 22.1932 24.7114C21.9195 24.983 21.6348 25.2808 21.9523 25.8262C22.2721 26.3737 23.3671 28.163 24.9922 29.6107C27.0815 31.4723 28.8402 32.0483 29.3877 32.3242C29.9353 32.598 30.2528 32.552 30.5726 32.1862C30.8923 31.8227 31.9392 30.5919 32.3028 30.0443C32.6663 29.4968 33.0321 29.5888 33.5336 29.7706C34.0351 29.9523 36.7224 31.2752 37.2677 31.5489C37.8152 31.8227 38.1788 31.9585 38.3146 32.1862C38.4504 32.4118 38.4504 33.5069 37.9948 34.7837Z" fill="#BACBD9"/>
</svg>
